PathFileType	4	(X/Y/Z)	pose_F01_0-88.trc
DataRate	CameraRate	NumFrames	NumMarkers	Units	OrigDataRate	OrigDataStartFrame	OrigNumFrames
30	30	5	21	m	30	55	88
Frame#	Time	CHip			RHip			RKnee			RAnkle			RBigToe			RSmallToe			RHeel			LHip			LKnee			LAnkle			LBigToe			LSmallToe			LHeel			Neck			Nose			RShoulder			RElbow			RWrist			LShoulder			LElbow			LWrist			
		X1	Y1	Z1	X2	Y2	Z2	X3	Y3	Z3	X4	Y4	Z4	X5	Y5	Z5	X6	Y6	Z6	X7	Y7	Z7	X8	Y8	Z8	X9	Y9	Z9	X10	Y10	Z10	X11	Y11	Z11	X12	Y12	Z12	X13	Y13	Z13	X14	Y14	Z14	X15	Y15	Z15	X16	Y16	Z16	X17	Y17	Z17	X18	Y18	Z18	X19	Y19	Z19	X20	Y20	Z20	X21	Y21	Z21	
55	1.8333333333333333	-0.24471809928899843	1.8841898763163478	-0.5436667674290145	-0.25437353246651845	1.8798357776223902	-0.47622273911568463	-0.2673504829236857	1.723622551221435	-0.4509471245933809	-0.2812297876966063	1.5611525424964208	-0.40857472175879017	-0.23771144985999312	1.5215640277281146	-0.4515086606707589	-0.245451974682592	1.5199473485403514	-0.41465870466692256	-0.2892851700742947	1.5512997829893451	-0.4036213343576638	-0.2378499304618535	1.8884641149628736	-0.6144607490902325	-0.23399877102739308	1.735260331161999	-0.6024037751727581	-0.24026259064110336	1.5837800598345833	-0.5780257034107297	-0.20737002289141504	1.543403901348752	-0.6389605171461896	-0.20980997163708315	1.5550206714152175	-0.6534019254106089	-0.24305311347730874	1.568234915688579	-0.5558163743016753	-0.2569799963332194	2.0661306181642343	-0.5489229239429746	-0.21889476181630224	2.145139044154388	-0.5975279609551403	-0.2645379473006938	2.0657979191702833	-0.4563966456014189	-0.27866256070940304	1.9742837667608013	-0.3566811889727522	-0.24213096033161344	1.9035959578303705	-0.40283714194254966	-0.2513849978658894	2.0653764994367543	-0.6366055584184733	-1.389049740803887	1.905779140933868	0.5233904965618628	-1.429699972995144	1.881100340460898	0.6340900046868592
56	1.8666666666666667	-0.2426120088125044	1.8853055841014947	-0.5458885705822251	-0.2520736586195121	1.8820043426786601	-0.47872451651106873	-0.2669794927431845	1.7202875997221838	-0.4509257899877998	-0.28030070182120564	1.5625947848832118	-0.40504345905985956	-0.24300366517600688	1.5230058267465132	-0.4461262699278307	-0.2508453321894109	1.522640764057215	-0.40899259089092654	-0.2873148401647129	1.5568901691230097	-0.4065152654749089	-0.23782409423063755	1.8883472788717584	-0.61448062883919	-0.23096157531465805	1.735228461108568	-0.6014449828363552	-0.24026943970354003	1.5837500087804126	-0.5780595397562593	-0.2064491710972238	1.5435310217873772	-0.6358680145779333	-0.20955930315658458	1.5547764191390905	-0.6533004258680153	-0.2432172149194948	1.5662018486750557	-0.5555914470166143	-0.2549754594065403	2.0651577266128185	-0.5512103451712983	-0.21773657190676732	2.1453045527318193	-0.602521606659605	-0.26257835175737104	2.064412097755225	-0.45794156547610027	-0.27496105402232285	1.9786399456146757	-0.36175507010939256	-0.23847807970068996	1.9125508877289081	-0.3921892878366996	-0.2493027188954594	2.0653173651129255	-0.6388091430869999	-1.3931387790564327	1.9045944247243534	0.5318462612911133	-1.429699972995144	1.881100340460898	0.6340900046868592
57	1.9	-0.24579390704481402	1.883005654724691	-0.5466295369038435	-0.25335802573744387	1.8798877422757099	-0.4816667751504377	-0.26725229270749534	1.7227260102108166	-0.45094229478888165	-0.27920036521015323	1.5636639388039058	-0.4013730437407448	-0.24112010304540604	1.5236719403760077	-0.4483831725795978	-0.2472011104241023	1.5241795546469075	-0.4133802066855623	-0.2853287641033277	1.55876903146515	-0.399545764684095	-0.2399927373179171	1.8870955019075808	-0.6122734194570469	-0.2313725978847356	1.7327169397499755	-0.6008730294471231	-0.24025140924229219	1.5836174511391605	-0.5781762032711387	-0.2054410712380488	1.5446258701481097	-0.6412158225973653	-0.20930863467608604	1.5545321668629635	-0.6531989263254216	-0.24452568628606366	1.5677526190905728	-0.5589340087937278	-0.2530995864421395	2.0641254959227515	-0.5535032411077508	-0.21674495949165865	2.1439888005905146	-0.60013599230969	-0.2624318552022168	2.0644508791951726	-0.45813946865791627	-0.2663994977138131	1.976263035602851	-0.366439751474531	-0.23413315095028403	1.9072612272328422	-0.3863057217466832	-0.24935902893782694	2.064240010577026	-0.639061574110849	-1.3972278173089783	1.9034097085148387	0.5403020260203639	-1.429699972995144	1.881100340460898	0.6340900046868592
58	1.9333333333333333	-0.2438583415518716	1.887284311859272	-0.549369004367473	-0.251568036292541	1.8831096950379809	-0.4844404193148913	-0.2652748026480421	1.7217628655015196	-0.44394904557286285	-0.27588148971228943	1.5596912220473569	-0.39594125387943857	-0.24120937041207635	1.5237813225188017	-0.4483319024633915	-0.24886255283446757	1.5223499648528012	-0.4115170263125756	-0.2822901458325592	1.5541504854729282	-0.393472661891591	-0.23816741303079614	1.8903396931317442	-0.6147880716093332	-0.22995979504623715	1.7340771078708257	-0.6064631019240853	-0.24029083594029688	1.583757491322337	-0.5781828352745428	-0.20974515631653787	1.5440874399636009	-0.6367983725886863	-0.2090579661955875	1.5542879145868367	-0.653097426782828	-0.24447030470085596	1.567410360476198	-0.5589467833977162	-0.2510467263544492	2.06280263683057	-0.5551481612655748	-0.21475088006505536	2.1401972780845	-0.6013016147278796	-0.2566325619406258	2.0656206357062854	-0.4644170545544948	-0.2644887939320131	1.9746349192533967	-0.36815906798990283	-0.23291518150083151	1.90969803636393	-0.3833076533468228	-0.2430905562838206	2.063392169983842	-0.6456671046446981	-1.401316855561524	1.902224992305324	0.5487577907496146	-1.429699972995144	1.881100340460898	0.6340900046868592
59	1.9666666666666666	-0.24303183458108477	1.8858764873552363	-0.5460136988788028	-0.2494405837273642	1.8813986649365688	-0.4777636366642356	-0.2617248170528402	1.721503217971255	-0.43438767812903895	-0.27419239373272253	1.5638712530184335	-0.38828203400267136	-0.24140329969109134	1.5264595552224565	-0.4385961595372968	-0.2461118836775288	1.5258525946303774	-0.4006912854670928	-0.2790376177200055	1.5567064993720547	-0.38237965985503597	-0.23726218036137195	1.8900423088447995	-0.6116868392147053	-0.2289591094656398	1.7338286236503528	-0.6033928237719792	-0.2403302626383016	1.5838975315055133	-0.578189467277947	-0.20881369674860112	1.5441269853927262	-0.6335797581279133	-0.20880729771508896	1.5540436623107097	-0.6529959272402344	-0.24441492311564827	1.567068101861823	-0.5589595580017047	-0.24994839324204848	2.0612509537588157	-0.5516423542904931	-0.21065621278284433	2.139550558555446	-0.6058110379516326	-0.24876732574712873	2.0641076391840674	-0.4640278176797179	-0.2659178403716682	1.976715138167293	-0.38070319241931105	-0.22820331428145144	1.9112320988246987	-0.3762171443399007	-0.23999747821916287	2.062000723471001	-0.6442853120588479	-1.4054058938140699	1.9010402760958094	0.5572135554788652	-1.429699972995144	1.881100340460898	0.6340900046868592
